<svg width="24" height="24" viewBox="0 0 24 24" fill="none" xmlns="http://www.w3.org/2000/svg">
<path d="M12 14.3343C9.43599 14.3343 7.33667 12.235 7.33667 9.67102C7.33667 7.10701 9.43599 5.00769 12 5.00769C14.564 5.00769 16.6633 7.10701 16.6633 9.67102C16.6633 12.235 14.564 14.3343 12 14.3343ZM12 7.33662C10.7153 7.33662 9.6656 8.38628 9.6656 9.67102C9.6656 10.9558 10.7153 12.0054 12 12.0054C13.2847 12.0054 14.3344 10.9558 14.3344 9.67102C14.3344 8.38628 13.2847 7.33662 12 7.33662Z" fill="#1D7460"/>
<path d="M12 23.8962C11.0651 23.8962 10.1357 23.5463 9.55077 22.8465L4.65236 17.9481C3.13801 16.4338 2.20316 14.5641 1.73847 12.585C1.27377 10.4857 1.50339 8.38639 2.32343 6.52216C3.13801 4.53765 4.42275 3.02329 6.17218 1.85883C9.67104 -0.475567 14.3344 -0.475567 17.8332 1.85883C19.5827 3.02329 20.8674 4.65792 21.682 6.52216C22.4966 8.50667 22.7316 10.4857 22.2669 12.585C21.9171 14.6843 20.8674 16.4338 19.353 17.9481L14.4546 22.8465C13.8642 23.5463 12.9348 23.8962 12 23.8962ZM12 2.31806C10.3653 2.31806 8.851 2.78275 7.45145 3.7176C6.16671 4.65245 5.11706 5.81692 4.41728 7.33127C3.83232 8.84562 3.71751 10.4802 3.95259 12.1149C4.30248 13.6292 5.11706 15.149 6.16671 16.3135L11.0651 21.2119C11.5298 21.6766 12.2296 21.6766 12.6997 21.2119L17.8332 16.3135C18.9977 15.149 19.6975 13.7495 20.0474 12.1149C20.3972 10.4802 20.1622 8.85108 19.5827 7.45154C18.8829 5.81692 17.8332 4.65245 16.5485 3.7176C15.1489 2.78821 13.6346 2.31806 12 2.31806Z" fill="#1D7460"/>
</svg>
