<svg width="24" height="24" viewBox="0 0 24 24" fill="none" xmlns="http://www.w3.org/2000/svg">
<path d="M9.96417 23.9158C7.81089 23.9158 5.77538 23.0803 4.10435 21.5214C2.55108 19.9682 1.70996 17.9326 1.70996 15.7794C1.70996 13.6261 2.54547 11.5906 4.10435 10.0373L12.3586 1.78872C14.6296 -0.482308 18.3417 -0.482308 20.6128 1.78872C21.6894 2.86536 22.2894 4.41863 22.2894 5.9775C22.2894 7.53638 21.6894 8.96629 20.6128 10.1663L13.1941 17.5794C11.7586 18.8971 9.60529 18.8971 8.16977 17.5794C7.45202 16.8616 7.09314 16.0261 7.09314 15.0672C7.09314 14.1083 7.45202 13.2728 8.16977 12.5551L15.3473 5.37751C15.824 4.90087 16.5417 4.90087 17.024 5.37751C17.5062 5.85414 17.5006 6.5719 17.024 7.05414L9.84641 14.2317C9.84641 14.3495 9.72865 14.5906 9.72865 14.9495C9.72865 15.3083 9.84641 15.5495 10.0875 15.785C10.5642 16.2616 11.2819 16.2616 11.7642 15.785L19.1772 8.36629C19.7773 7.76629 20.2539 6.81302 20.2539 5.9719C20.2539 5.13078 19.895 4.17751 19.1772 3.57751C17.8595 2.25975 15.5885 2.25975 14.2707 3.57751L6.0165 11.8373C4.93987 12.914 4.33987 14.3495 4.33987 15.9027C4.33987 17.456 4.93987 18.8915 6.0165 19.9682C8.28753 22.2392 11.9997 22.2392 14.2707 19.9682L19.1772 15.0616C19.6539 14.585 20.3716 14.585 20.8539 15.0616C21.3361 15.5383 21.3305 16.256 20.8539 16.7383L15.8296 21.5214C14.2707 23.0803 12.1174 23.9158 9.96417 23.9158Z" fill="#1D7460"/>
</svg>
