<svg width="16" height="16" viewBox="0 0 16 16" fill="none" xmlns="http://www.w3.org/2000/svg">
<path d="M9.09938 8.00009L13.7719 3.32729C14.076 3.02334 14.076 2.53191 13.7719 2.22796C13.468 1.92401 12.9766 1.92401 12.6726 2.22796L7.99993 6.90076L3.32737 2.22796C3.02329 1.92401 2.532 1.92401 2.22806 2.22796C1.92398 2.53191 1.92398 3.02334 2.22806 3.32729L6.90062 8.00009L2.22806 12.6729C1.92398 12.9768 1.92398 13.4683 2.22806 13.7722C2.37953 13.9238 2.5787 14 2.77772 14C2.97674 14 3.17576 13.9238 3.32737 13.7722L7.99993 9.09942L12.6726 13.7722C12.8242 13.9238 13.0233 14 13.2223 14C13.4213 14 13.6203 13.9238 13.7719 13.7722C14.076 13.4683 14.076 12.9768 13.7719 12.6729L9.09938 8.00009Z" fill="#F16520" stroke="#F16520"/>
</svg>
