<svg width="42" height="31" viewBox="0 0 42 31" fill="none" xmlns="http://www.w3.org/2000/svg">
<path d="M20.9996 15.8454L3.69582 2.99225H3.01172V4.99253L20.9996 18.3438L38.9876 4.99253V2.99225H38.3035L20.9996 15.8454Z" fill="#F16520" stroke="#F16520" stroke-width="0.5"/>
<path d="M36.7747 1H5.22535C2.89135 1 1 2.88781 1 5.21745V25.7825C1 28.1042 2.89135 30 5.22535 30H36.7747C39.1006 30 41 28.1122 41 25.7825V5.21745C41 2.88781 39.1006 1 36.7747 1ZM38.9879 5.00055V5.12105V25.7825C38.9879 27.0036 37.998 27.9917 36.7747 27.9917H5.22535C4.00201 27.9917 3.01207 27.0036 3.01207 25.7825V5.00055V3.00831H3.69618H4.59759H38.3038H38.9879V5.00055Z" fill="#1D7460" stroke="#1D7460" stroke-width="0.5"/>
</svg>
