<svg width="381" height="109" viewBox="0 0 381 109" fill="none" xmlns="http://www.w3.org/2000/svg">
<path d="M291.005 170.619L256.559 146.739L265.6 143.12L267.171 142.492L266.358 141.008C259.037 127.634 249.912 110.477 240.955 93.6283L240.384 92.5536C231.63 76.0849 223.076 59.9937 216.582 48.138C210.854 37.6289 203 31.9427 194.692 31.8788C186.396 31.8149 178.306 37.3656 172.11 47.8549C161.805 64.8934 151.78 82.0383 141.742 99.2063C136.15 108.771 130.554 118.342 124.903 127.906C123.934 129.416 123.014 130.924 122.064 132.483C121.982 132.617 121.9 132.752 121.817 132.888C121.002 134.225 120.156 135.607 119.222 137.08C111.945 132.296 105.154 127.838 97.4882 122.858C98.8714 120.465 100.247 118.081 101.618 115.705C107.61 105.32 113.511 95.0929 119.558 85.0079L119.562 85.0016C123.078 79.0724 126.535 73.1512 129.979 67.2505C138.866 52.0293 147.673 36.9438 157.212 22.2068L157.216 22.1999C166.251 8.07403 180.076 1.25492 193.664 1.50673C207.251 1.7585 220.734 9.08151 229.086 23.5386L229.091 23.5472C241.929 45.4336 254.22 67.6329 266.497 89.8069C272.229 100.16 277.958 110.507 283.738 120.815L283.839 120.995L283.874 121.03C283.897 121.071 283.927 121.123 283.963 121.19C284.077 121.397 284.235 121.693 284.43 122.065C284.819 122.807 285.339 123.82 285.921 124.955C286.073 125.251 286.228 125.555 286.387 125.864C287.441 127.924 288.62 130.226 289.535 131.955L290.166 133.148L291.419 132.646L299.309 129.488L291.005 170.619Z" stroke="#F4F5F6" stroke-width="3"/>
</svg>
