<svg width="135" height="266" viewBox="0 0 135 266" fill="none" xmlns="http://www.w3.org/2000/svg">
<path d="M291.005 85.6186L256.559 61.7393L265.6 58.1205L267.171 57.4917L266.358 56.0076C259.037 42.6337 249.912 25.4767 240.955 8.62833L240.384 7.55365C231.63 -8.91514 223.076 -25.0063 216.582 -36.862C210.854 -47.3711 203 -53.0573 194.692 -53.1212C186.396 -53.1851 178.306 -47.6344 172.11 -37.1451C161.805 -20.1066 151.78 -2.9617 141.742 14.2063C136.15 23.7707 130.554 33.3421 124.903 42.9064C123.934 44.4155 123.014 45.9241 122.064 47.4827C121.982 47.6173 121.9 47.7523 121.817 47.8877C121.002 49.2249 120.156 50.6069 119.222 52.08C111.945 47.2955 105.154 42.8385 97.4882 37.8578C98.8714 35.4653 100.247 33.0812 101.618 30.7053C107.61 20.3204 113.511 10.0929 119.558 0.00788116L119.562 0.0016098C123.078 -5.92757 126.535 -11.8488 129.979 -17.7495C138.866 -32.9707 147.673 -48.0562 157.212 -62.7932L157.216 -62.8001C166.251 -76.926 180.076 -83.7451 193.664 -83.4933C207.251 -83.2415 220.734 -75.9185 229.086 -61.4614L229.091 -61.4528C241.929 -39.5664 254.22 -17.3671 266.497 4.80692C272.229 15.1599 277.958 25.5074 283.738 35.815L283.839 35.9954L283.874 36.03C283.897 36.0706 283.927 36.1234 283.963 36.1899C284.077 36.3966 284.235 36.6927 284.43 37.0649C284.819 37.8072 285.339 38.8196 285.921 39.9551C286.073 40.2509 286.228 40.5549 286.387 40.8644C287.441 42.9236 288.62 45.2256 289.535 46.9552L290.166 48.1476L291.419 47.6463L299.309 44.4882L291.005 85.6186Z" stroke="#F4F5F6" stroke-width="3"/>
<path d="M60.3537 228.607H60.3642L60.3747 228.607C85.2345 228.259 110.09 228.301 135.64 228.345C143.772 228.359 151.973 228.373 160.268 228.374V228.383V228.425V228.466V228.508V228.549V228.59V228.632V228.673V228.715V228.756V228.797V228.839V228.88V228.921V228.963V229.004V229.045V229.086V229.128V229.169V229.21V229.251V229.292V229.333V229.374V229.415V229.456V229.497V229.538V229.579V229.62V229.661V229.702V229.743V229.784V229.825V229.866V229.907V229.948V229.988V230.029V230.07V230.111V230.151V230.192V230.233V230.273V230.314V230.355V230.395V230.436V230.477V230.517V230.558V230.598V230.639V230.679V230.72V230.76V230.801V230.841V230.882V230.922V230.962V231.003V231.043V231.083V231.124V231.164V231.204V231.245V231.285V231.325V231.365V231.405V231.446V231.486V231.526V231.566V231.606V231.646V231.686V231.726V231.766V231.806V231.846V231.886V231.926V231.966V232.006V232.046V232.086V232.126V232.166V232.206V232.246V232.286V232.325V232.365V232.405V232.445V232.484V232.524V232.564V232.604V232.643V232.683V232.723V232.762V232.802V232.842V232.881V232.921V232.96V233V233.039V233.079V233.118V233.158V233.197V233.237V233.276V233.316V233.355V233.395V233.434V233.473V233.513V233.552V233.591V233.631V233.67V233.709V233.749V233.788V233.827V233.866V233.906V233.945V233.984V234.023V234.062V234.102V234.141V234.18V234.219V234.258V234.297V234.336V234.375V234.414V234.453V234.492V234.531V234.57V234.609V234.648V234.687V234.726V234.765V234.804V234.843V234.882V234.921V234.959V234.998V235.037V235.076V235.115V235.154V235.192V235.231V235.27V235.309V235.347V235.386V235.425V235.463V235.502V235.541V235.579V235.618V235.657V235.695V235.734V235.772V235.811V235.85V235.888V235.927V235.965V236.004V236.042V236.081V236.119V236.158V236.196V236.235V236.273V236.311V236.35V236.388V236.427V236.465V236.503V236.542V236.58V236.618V236.657V236.695V236.733V236.772V236.81V236.848V236.887V236.925V236.963V237.001V237.039V237.078V237.116V237.154V237.192V237.23V237.268V237.307V237.345V237.383V237.421V237.459V237.497V237.535V237.573V237.611V237.649V237.687V237.725V237.764V237.802V237.84V237.877V237.915V237.953V237.991V238.029V238.067V238.105V238.143V238.181V238.219V238.257V238.295V238.333V238.37V238.408V238.446V238.484V238.522V238.56V238.597V238.635V238.673V238.711V238.749V238.786V238.824V238.862V238.9V238.937V238.975V239.013V239.05V239.088V239.126V239.163V239.201V239.239V239.276V239.314V239.352V239.389V239.427V239.465V239.502V239.54V239.577V239.615V239.653V239.69V239.728V239.765V239.803V239.84V239.878V239.915V239.953V239.99V240.028V240.065V240.103V240.14V240.178V240.215V240.253V240.29V240.327V240.365V240.402V240.44V240.477V240.515V240.552V240.589V240.627V240.664V240.701V240.739V240.776V240.814V240.851V240.888V240.926V240.963V241V241.037V241.075V241.112V241.149V241.187V241.224V241.261V241.298V241.336V241.373V241.41V241.447V241.485V241.522V241.559V241.596V241.634V241.671V241.708V241.745V241.782V241.82V241.857V241.894V241.931V241.968V242.005V242.042V242.08V242.117V242.154V242.191V242.228V242.265V242.302V242.34V242.377V242.414V242.451V242.488V242.525V242.562V242.599V242.636V242.673V242.71V242.747V242.784V242.822V242.859V242.896V242.933V242.97V243.007V243.044V243.081V243.118V243.155V243.192V243.229V243.266V243.303V243.34V243.377V243.414V243.451V243.488V243.525V243.562V243.599V243.636V243.673V243.71V243.746V243.783V243.82V243.857V243.894V243.931V243.968V244.005V244.042V244.079V244.116V244.153V244.19V244.227V244.264V244.3V244.337V244.374V244.411V244.448V244.485V244.522V244.559V244.596V244.633V244.669V244.706V244.743V244.78V244.817V244.854V244.891V244.928V244.964V245.001V245.038V245.075V245.112V245.149V245.186V245.222V245.259V245.296V245.333V245.37V245.407V245.444V245.48V245.517V245.554V245.591V245.628V245.665V245.701V245.738V245.775V245.812V245.849V245.886V245.922V245.959V245.996V246.033V246.07V246.107V246.143V246.18V246.217V246.254V246.291V246.328V246.364V246.401V246.438V246.475V246.512V246.548V246.585V246.622V246.659V246.679V246.7V246.721V246.741V246.762V246.783V246.804V246.824V246.845V246.866V246.887V246.909V246.93V246.951V246.972V246.993V247.015V247.036V247.058V247.079V247.101V247.122V247.144V247.166V247.188V247.21V247.231V247.253V247.275V247.297V247.319V247.341V247.364V247.386V247.408V247.43V247.453V247.475V247.498V247.52V247.543V247.565V247.588V247.61V247.633V247.656V247.678V247.701V247.724V247.747V247.77V247.793V247.816V247.839V247.862V247.885V247.908V247.932V247.955V247.978V248.001V248.025V248.048V248.071V248.095V248.118V248.142V248.165V248.189V248.213V248.236V248.26V248.284V248.307V248.331V248.355V248.379V248.402V248.426V248.45V248.474V248.498V248.522V248.546V248.57V248.594V248.618V248.642V248.666V248.691V248.715V248.739V248.763V248.788V248.812V248.836V248.86V248.885V248.909V248.934V248.958V248.982V249.007V249.031V249.056V249.08V249.105V249.129V249.154V249.178V249.203V249.228V249.252V249.277V249.301V249.326V249.351V249.375V249.4V249.425V249.45V249.474V249.499V249.524V249.549V249.573V249.598V249.623V249.648V249.673V249.697V249.722V249.747V249.772V249.797V249.822V249.847V249.871V249.896V249.921V249.946V249.971V249.996V250.021V250.046V250.071V250.096V250.12V250.145V250.17V250.195V250.22V250.245V250.27V250.295V250.32V250.345V250.37V250.394V250.419V250.444V250.469V250.494V250.519V250.544V250.569V250.594V250.618V250.643V250.668V250.693V250.718V250.743V250.768V250.792V250.817V250.842V250.867V250.892V250.916V250.941V250.966V250.991V251.015V251.04V251.065V251.089V251.114V251.139V251.163V251.188V251.213V251.237V251.262V251.286V251.311V251.336V251.36V251.385V251.409V251.434V251.458V251.482V251.507V251.531V251.556V251.58V251.604V251.629V251.653V251.677V251.701V251.726V251.75V251.774V251.798V251.822V251.846V251.87V251.894V251.919V251.942V251.966V251.99V252.014V252.038V252.062V252.086V252.11V252.133V252.157V252.181V252.205V252.228V252.252V252.275V252.299V252.322V252.346V252.369V252.393V252.416V252.44V252.463V252.486V252.509V252.533V252.556V252.579V252.602V252.625V252.648V252.671V252.694V252.717V252.74V252.763V252.785V252.808V252.831V252.853V252.876V252.899V252.921V252.944V252.966V252.989V253.011V253.033V253.055V253.078V253.1V253.122V253.144V253.166V253.188V253.21V253.232V253.254V253.276V253.297V253.319V253.341V253.362V253.384V253.405V253.427V253.448V253.47V253.491V253.512V253.533V253.554V253.575V253.596V253.617V253.638V253.659V253.68V253.701V253.721V253.742V253.763V253.783V253.804V253.824V253.844V253.865V253.885V253.905V253.925V253.945V253.965V253.985V254.005V254.025V254.044V254.064V254.084V254.103V254.123V254.142V254.161V254.181V254.2V254.219V254.238V254.257V254.276V254.295V254.314V254.332V254.351V254.37V254.388V254.407V254.425V254.443V254.462V254.48V254.498V254.516V254.534V254.552V254.569V254.587V254.605V254.622V254.64V254.657V254.675V254.692V254.709V254.726V254.729C122.629 255.406 76.6338 255.608 39.2611 253.773C8.85685 252.205 -7.87101 219.054 7.00709 191.985C23.5172 161.967 50.7277 113.56 68.4041 82.3727L69.1044 81.1372L67.909 80.3705L61.1882 76.0593L99.8252 59.0142L100.448 100.981L91.8645 95.4982L90.5569 94.6631L89.7664 95.9981C84.1956 105.405 77.3647 117.109 70.2533 129.293C58.3344 149.714 45.6273 171.485 36.7433 186.059L36.7406 186.064C31.4426 194.823 26.0123 204.881 32.0587 215.728C38.0713 226.752 49.1125 228.607 60.3537 228.607Z" stroke="#F4F5F6" stroke-width="3"/>
</svg>
