<svg width="381" height="279" viewBox="0 0 381 279" fill="none" xmlns="http://www.w3.org/2000/svg">
<path d="M372.355 273.499L372.357 273.501C381.675 290.217 381.371 306.757 374.23 319.095C367.089 331.433 352.965 339.821 334.116 339.935H334.115C299.236 340.168 249.24 339.935 213.667 339.237L212.138 339.207V340.737V348.197L177.045 325.132L211.905 301.877V313.271V314.738L213.372 314.771C228.744 315.113 247.501 315.453 266.253 315.794C285.874 316.15 305.491 316.506 321.223 316.864C323.187 317.102 325.374 317.099 327.333 316.854C336.965 315.649 344.213 311.331 347.794 304.862C351.388 298.369 351.089 290.073 346.376 281.367L346.374 281.362C339.075 267.998 331.353 254.825 323.644 241.675C319.796 235.111 315.952 228.553 312.165 221.98C309.584 217.46 307.007 212.984 304.402 208.46C300.66 201.958 296.86 195.359 292.911 188.391C295.546 186.929 298.127 185.503 300.734 184.063C305.528 181.415 310.413 178.717 315.886 175.65C319.477 181.89 322.925 187.771 326.31 193.545C328.58 197.416 330.821 201.239 333.058 205.089C338.055 213.84 343.113 222.543 348.17 231.246C356.318 245.266 364.464 259.285 372.355 273.499Z" stroke="#F4F5F6" stroke-width="3"/>
<path d="M291.005 170.619L256.559 146.739L265.6 143.12L267.171 142.492L266.358 141.008C259.037 127.634 249.912 110.477 240.955 93.6283L240.384 92.5536C231.63 76.0849 223.076 59.9937 216.582 48.138C210.854 37.6289 203 31.9427 194.692 31.8788C186.396 31.8149 178.306 37.3656 172.11 47.8549C161.805 64.8934 151.78 82.0383 141.742 99.2063C136.15 108.771 130.554 118.342 124.903 127.906C123.934 129.416 123.014 130.924 122.064 132.483C121.982 132.617 121.9 132.752 121.817 132.888C121.002 134.225 120.156 135.607 119.222 137.08C111.945 132.296 105.154 127.838 97.4882 122.858C98.8714 120.465 100.247 118.081 101.618 115.705C107.61 105.32 113.511 95.0929 119.558 85.0079L119.562 85.0016C123.078 79.0724 126.535 73.1512 129.979 67.2505C138.866 52.0293 147.673 36.9438 157.212 22.2068L157.216 22.1999C166.251 8.07403 180.076 1.25492 193.664 1.50673C207.251 1.7585 220.734 9.08151 229.086 23.5386L229.091 23.5472C241.929 45.4336 254.22 67.6329 266.497 89.8069C272.229 100.16 277.958 110.507 283.738 120.815L283.839 120.995L283.874 121.03C283.897 121.071 283.927 121.123 283.963 121.19C284.077 121.397 284.235 121.693 284.43 122.065C284.819 122.807 285.339 123.82 285.921 124.955C286.073 125.251 286.228 125.555 286.387 125.864C287.441 127.924 288.62 130.226 289.535 131.955L290.166 133.148L291.419 132.646L299.309 129.488L291.005 170.619Z" stroke="#F4F5F6" stroke-width="3"/>
<path d="M60.3537 313.607H60.3642L60.3747 313.607C85.2345 313.259 110.09 313.301 135.64 313.345C143.772 313.359 151.973 313.373 160.268 313.374V313.383V313.425V313.466V313.508V313.549V313.59V313.632V313.673V313.715V313.756V313.797V313.839V313.88V313.921V313.963V314.004V314.045V314.086V314.128V314.169V314.21V314.251V314.292V314.333V314.374V314.415V314.456V314.497V314.538V314.579V314.62V314.661V314.702V314.743V314.784V314.825V314.866V314.907V314.948V314.988V315.029V315.07V315.111V315.151V315.192V315.233V315.273V315.314V315.355V315.395V315.436V315.477V315.517V315.558V315.598V315.639V315.679V315.72V315.76V315.801V315.841V315.882V315.922V315.962V316.003V316.043V316.083V316.124V316.164V316.204V316.245V316.285V316.325V316.365V316.405V316.446V316.486V316.526V316.566V316.606V316.646V316.686V316.726V316.766V316.806V316.846V316.886V316.926V316.966V317.006V317.046V317.086V317.126V317.166V317.206V317.246V317.286V317.325V317.365V317.405V317.445V317.484V317.524V317.564V317.604V317.643V317.683V317.723V317.762V317.802V317.842V317.881V317.921V317.96V318V318.039V318.079V318.118V318.158V318.197V318.237V318.276V318.316V318.355V318.395V318.434V318.473V318.513V318.552V318.591V318.631V318.67V318.709V318.749V318.788V318.827V318.866V318.906V318.945V318.984V319.023V319.062V319.102V319.141V319.18V319.219V319.258V319.297V319.336V319.375V319.414V319.453V319.492V319.531V319.57V319.609V319.648V319.687V319.726V319.765V319.804V319.843V319.882V319.921V319.959V319.998V320.037V320.076V320.115V320.154V320.192V320.231V320.27V320.309V320.347V320.386V320.425V320.463V320.502V320.541V320.579V320.618V320.657V320.695V320.734V320.772V320.811V320.85V320.888V320.927V320.965V321.004V321.042V321.081V321.119V321.158V321.196V321.235V321.273V321.311V321.35V321.388V321.427V321.465V321.503V321.542V321.58V321.618V321.657V321.695V321.733V321.772V321.81V321.848V321.887V321.925V321.963V322.001V322.039V322.078V322.116V322.154V322.192V322.23V322.268V322.307V322.345V322.383V322.421V322.459V322.497V322.535V322.573V322.611V322.649V322.687V322.725V322.764V322.802V322.84V322.877V322.915V322.953V322.991V323.029V323.067V323.105V323.143V323.181V323.219V323.257V323.295V323.333V323.37V323.408V323.446V323.484V323.522V323.56V323.597V323.635V323.673V323.711V323.749V323.786V323.824V323.862V323.9V323.937V323.975V324.013V324.05V324.088V324.126V324.163V324.201V324.239V324.276V324.314V324.352V324.389V324.427V324.465V324.502V324.54V324.577V324.615V324.653V324.69V324.728V324.765V324.803V324.84V324.878V324.915V324.953V324.99V325.028V325.065V325.103V325.14V325.178V325.215V325.253V325.29V325.327V325.365V325.402V325.44V325.477V325.515V325.552V325.589V325.627V325.664V325.701V325.739V325.776V325.814V325.851V325.888V325.926V325.963V326V326.037V326.075V326.112V326.149V326.187V326.224V326.261V326.298V326.336V326.373V326.41V326.447V326.485V326.522V326.559V326.596V326.634V326.671V326.708V326.745V326.782V326.82V326.857V326.894V326.931V326.968V327.005V327.042V327.08V327.117V327.154V327.191V327.228V327.265V327.302V327.34V327.377V327.414V327.451V327.488V327.525V327.562V327.599V327.636V327.673V327.71V327.747V327.784V327.822V327.859V327.896V327.933V327.97V328.007V328.044V328.081V328.118V328.155V328.192V328.229V328.266V328.303V328.34V328.377V328.414V328.451V328.488V328.525V328.562V328.599V328.636V328.673V328.71V328.746V328.783V328.82V328.857V328.894V328.931V328.968V329.005V329.042V329.079V329.116V329.153V329.19V329.227V329.264V329.3V329.337V329.374V329.411V329.448V329.485V329.522V329.559V329.596V329.633V329.669V329.706V329.743V329.78V329.817V329.854V329.891V329.928V329.964V330.001V330.038V330.075V330.112V330.149V330.186V330.222V330.259V330.296V330.333V330.37V330.407V330.444V330.48V330.517V330.554V330.591V330.628V330.665V330.701V330.738V330.775V330.812V330.849V330.886V330.922V330.959V330.996V331.033V331.07V331.107V331.143V331.18V331.217V331.254V331.291V331.328V331.364V331.401V331.438V331.475V331.512V331.548V331.585V331.622V331.659V331.679V331.7V331.721V331.741V331.762V331.783V331.804V331.824V331.845V331.866V331.887V331.909V331.93V331.951V331.972V331.993V332.015V332.036V332.058V332.079V332.101V332.122V332.144V332.166V332.188V332.21V332.231V332.253V332.275V332.297V332.319V332.341V332.364V332.386V332.408V332.43V332.453V332.475V332.498V332.52V332.543V332.565V332.588V332.61V332.633V332.656V332.678V332.701V332.724V332.747V332.77V332.793V332.816V332.839V332.862V332.885V332.908V332.932V332.955V332.978V333.001V333.025V333.048V333.071V333.095V333.118V333.142V333.165V333.189V333.213V333.236V333.26V333.284V333.307V333.331V333.355V333.379V333.402V333.426V333.45V333.474V333.498V333.522V333.546V333.57V333.594V333.618V333.642V333.666V333.691V333.715V333.739V333.763V333.788V333.812V333.836V333.86V333.885V333.909V333.934V333.958V333.982V334.007V334.031V334.056V334.08V334.105V334.129V334.154V334.178V334.203V334.228V334.252V334.277V334.301V334.326V334.351V334.375V334.4V334.425V334.45V334.474V334.499V334.524V334.549V334.573V334.598V334.623V334.648V334.673V334.697V334.722V334.747V334.772V334.797V334.822V334.847V334.871V334.896V334.921V334.946V334.971V334.996V335.021V335.046V335.071V335.096V335.12V335.145V335.17V335.195V335.22V335.245V335.27V335.295V335.32V335.345V335.37V335.394V335.419V335.444V335.469V335.494V335.519V335.544V335.569V335.594V335.618V335.643V335.668V335.693V335.718V335.743V335.768V335.792V335.817V335.842V335.867V335.892V335.916V335.941V335.966V335.991V336.015V336.04V336.065V336.089V336.114V336.139V336.163V336.188V336.213V336.237V336.262V336.286V336.311V336.336V336.36V336.385V336.409V336.434V336.458V336.482V336.507V336.531V336.556V336.58V336.604V336.629V336.653V336.677V336.701V336.726V336.75V336.774V336.798V336.822V336.846V336.87V336.894V336.919V336.942V336.966V336.99V337.014V337.038V337.062V337.086V337.11V337.133V337.157V337.181V337.205V337.228V337.252V337.275V337.299V337.322V337.346V337.369V337.393V337.416V337.44V337.463V337.486V337.509V337.533V337.556V337.579V337.602V337.625V337.648V337.671V337.694V337.717V337.74V337.763V337.785V337.808V337.831V337.853V337.876V337.899V337.921V337.944V337.966V337.989V338.011V338.033V338.055V338.078V338.1V338.122V338.144V338.166V338.188V338.21V338.232V338.254V338.276V338.297V338.319V338.341V338.362V338.384V338.405V338.427V338.448V338.47V338.491V338.512V338.533V338.554V338.575V338.596V338.617V338.638V338.659V338.68V338.701V338.721V338.742V338.763V338.783V338.804V338.824V338.844V338.865V338.885V338.905V338.925V338.945V338.965V338.985V339.005V339.025V339.044V339.064V339.084V339.103V339.123V339.142V339.161V339.181V339.2V339.219V339.238V339.257V339.276V339.295V339.314V339.332V339.351V339.37V339.388V339.407V339.425V339.443V339.462V339.48V339.498V339.516V339.534V339.552V339.569V339.587V339.605V339.622V339.64V339.657V339.675V339.692V339.709V339.726V339.729C122.629 340.406 76.6338 340.608 39.2611 338.773C8.85685 337.205 -7.87101 304.054 7.00709 276.985C23.5172 246.967 50.7277 198.56 68.4041 167.373L69.1044 166.137L67.909 165.371L61.1882 161.059L99.8252 144.014L100.448 185.981L91.8645 180.498L90.5569 179.663L89.7664 180.998C84.1956 190.405 77.3647 202.109 70.2533 214.293C58.3344 234.714 45.6273 256.485 36.7433 271.059L36.7406 271.064C31.4426 279.823 26.0123 289.881 32.0587 300.728C38.0713 311.752 49.1125 313.607 60.3537 313.607Z" stroke="#F4F5F6" stroke-width="3"/>
</svg>
