<svg width="654" height="365" viewBox="0 0 654 365" fill="none" xmlns="http://www.w3.org/2000/svg">
<g clip-path="url(#clip0_25_2782)">
<path fill-rule="evenodd" clip-rule="evenodd" d="M563.848 303.549L582.951 289.086V261.955L608.354 249.486L609.254 248.389L580.95 223.552L554.346 215.074L552.446 225.248L527.443 243.502L506.64 237.517L492.438 256.668L489.337 259.162L481.736 265.147L481.936 284.897L514.541 296.168L541.545 321.903" fill="#F4F5F6"/>
<path fill-rule="evenodd" clip-rule="evenodd" d="M368.373 294.463L390.284 279.326L401.942 248.356L410.184 218.083L399.43 202.149L371.991 187.013L355.005 198.664L340.23 178.847L323.245 169.088L310.782 183.726L294.298 188.705L298.62 206.73L265.654 217.585L264.246 240.389L280.428 260.405L311.284 264.289L315.908 278.032L335.406 283.21L332.29 297.849L368.373 294.463Z" fill="#F4F5F6"/>
<path fill-rule="evenodd" clip-rule="evenodd" d="M88.8892 88.6149L105.98 90.7248L107.379 125.086L113.375 135.836L133.964 116.948L163.447 108.207L177.739 93.337L199.926 94.0403L210.121 77.965L220.215 72.9415L209.621 40.4896L219.415 20.7974L243.702 10.6499L237.605 -11.5541L214.818 -16.9795L202.125 14.8696L154.752 24.9167L132.065 40.3891L105.68 48.5272L77.3957 72.2382L67.3014 68.2194L88.8892 88.6149Z" fill="#F4F5F6"/>
<path fill-rule="evenodd" clip-rule="evenodd" d="M158.751 221.381L171.373 224.978L211.343 213.187L235.085 220.681L252.816 204.693L265.438 214.286L293.287 204.693L288.779 186.206L308.314 180.61L321.537 166.52L322.338 152.93L306.811 143.137L313.222 128.947L308.915 104.464L284.672 88.2758L285.874 72.2872L265.438 56.5984L246.204 80.981L227.071 74.1859L213.046 81.6805L202.628 97.9689L180.289 97.1695L165.763 111.359L135.811 120.153L115.475 138.14L117.478 140.539L155.946 152.13L159.352 178.212L148.533 195.2L158.751 221.381ZM221.261 127.448L233.983 118.654L253.517 131.245L250.913 148.233L248.909 166.62L217.153 160.225L210.542 144.436L208.739 131.145L221.261 127.448Z" fill="#F4F5F6"/>
<path fill-rule="evenodd" clip-rule="evenodd" d="M220.083 156.151L245.545 161.305L247.155 146.954L249.369 132.299L234.273 122.394L223.203 130.075L213.239 133.006L214.547 142.709L220.083 156.151Z" fill="#F4F5F6"/>
<path fill-rule="evenodd" clip-rule="evenodd" d="M138.552 274.209L155.147 257.38V224.625L143.151 195.575L154.448 177.244L151.948 154.505L115.158 143.687L111.959 140.081L102.162 148.996L84.8666 140.081L72.9699 158.111H19.5845L15.5856 173.137L24.6831 184.957L35.5801 220.317L60.1734 238.448L79.2681 267.497L100.262 280.119L120.257 304.661L126.955 309.168L138.552 274.209Z" fill="#F4F5F6"/>
<path fill-rule="evenodd" clip-rule="evenodd" d="M430.928 124.103L390.857 144.643L360.455 123.101L334.339 134.223L316.496 130.416L311.712 140.936L326.165 149.653L325.766 165.984L343.609 176.104L356.468 193.237L372.117 182.416L402.519 199.449L413.285 215.781L445.083 205.06L450.565 186.124L440.697 160.474L450.565 125.306L437.706 133.822L431.327 124.704L430.928 124.103Z" fill="#F4F5F6"/>
<path fill-rule="evenodd" clip-rule="evenodd" d="M455.175 122.152L444.897 160.314L454.285 185.955L448.85 207.591L454.779 230.328L467.824 214.802L484.228 249.659L489.367 251.863L504.585 232.732L525.634 238.841L547.868 222.715L549.746 212.899L530.081 186.957L503.597 181.248L479.287 166.724L481.263 136.475L500.83 120.249L506.858 104.723L490.256 90.5003L460.61 84.1901L470.492 113.237L455.175 122.152Z" fill="#F4F5F6"/>
<path fill-rule="evenodd" clip-rule="evenodd" d="M652.984 206.613L628.321 184.997L613.784 159.91L574.485 145.433L555.336 149.102L534.383 126.495L541.601 103.292L509.42 106.663L502.803 123.52L484.557 138.096L483.153 164.67L503.605 177.56L532.979 183.906L554.033 209.587L582.705 218.71L583.106 219.007L611.679 244.788L623.81 229.914L653.886 222.676L652.984 206.613Z" fill="#F4F5F6"/>
<path fill-rule="evenodd" clip-rule="evenodd" d="M222.491 23.7402L213.947 40.7589L224.099 70.8691L226.612 70.0634L244.805 76.4077L264.405 50.5271L289.232 69.7613L317.074 71.0705L331.548 65.9346L331.146 29.4802L320.592 27.5669L304.108 -3.44953L281.291 -7.07483L270.235 14.7777L245.509 13.972" fill="#F4F5F6"/>
<path fill-rule="evenodd" clip-rule="evenodd" d="M334.857 67.877L316.347 74.4049L289.634 72.5972L288.333 85.7534L311.645 101.822L316.747 127.23L332.956 130.645L359.869 119.297L390.684 140.788L428.603 121.305L411.295 91.4778L392.185 86.0546L413.096 66.9732L407.593 48.7956L375.777 53.3149L354.766 33.3295L334.857 29.7141V67.877Z" fill="#F4F5F6"/>
<path fill-rule="evenodd" clip-rule="evenodd" d="M21.6816 153.223L71.7701 153.523L84.217 134.532L102.385 143.828L110.516 136.631L103.891 125.836L102.586 93.7512L88.1317 92.5518L57.7172 63.9652L54.8063 62.9657L19.1722 91.0525L1.8068 86.4546L0 116.341L26.4997 139.03L21.6816 153.223Z" fill="#F4F5F6"/>
<path fill-rule="evenodd" clip-rule="evenodd" d="M512.279 299.086L477.646 287.402V262.238L487.155 255.448L481.45 253.151L466.936 221.896L452.222 238.472L444.615 209.414L413.586 219.499L405.578 248.558L393.567 280.912L370.245 297.588L368.444 297.887L331.509 301.782L328.006 318.158L335.212 323.251L357.934 326.846L388.062 342.224L425.397 335.034L450.02 344.92L462.732 359.399L487.355 325.049L510.077 329.542L537.702 323.651L512.279 299.086Z" fill="#E8FAF6"/>
<path fill-rule="evenodd" clip-rule="evenodd" d="M330.839 285.84L313.342 281.45L308.043 267.382L278.447 264.089L260.65 242.039L261.95 216.298L252.451 209.414L235.654 225.078L210.857 216.597L171.063 229.069L159.565 225.577L159.365 258.801L143.367 275.164L131.769 311.182L148.866 323.454L167.064 355.082L185.361 365.059L203.558 352.388L230.854 359.572L237.153 345.105L259.05 336.125L267.249 295.418L289.046 304.497L312.742 308.987L324.74 316.27L330.839 285.84Z" fill="#F4F5F6"/>
<path d="M462.075 233.214C450.49 233.214 441.067 242.637 441.067 254.222C441.067 262.392 445.843 269.855 453.252 273.292L454.634 275.958C454.987 276.644 455.833 276.901 456.508 276.547C457.193 276.194 457.45 275.348 457.096 274.673L455.49 271.579C455.34 271.301 455.105 271.076 454.805 270.947C448.156 268.045 443.851 261.482 443.851 254.222C443.851 244.179 452.032 235.998 462.075 235.998C472.13 235.998 480.3 244.179 480.3 254.222C480.3 261.482 475.995 268.045 469.335 270.947C469.046 271.076 468.8 271.301 468.65 271.579L462.065 284.257L457.096 274.673C456.925 274.341 456.636 274.095 456.283 273.988C455.929 273.881 455.555 273.913 455.223 274.084C454.891 274.256 454.644 274.545 454.537 274.898C454.43 275.252 454.462 275.626 454.634 275.958L460.833 287.919C461.069 288.379 461.551 288.668 462.065 288.668C462.589 288.668 463.061 288.379 463.296 287.919L470.888 273.281C478.287 269.844 483.073 262.381 483.073 254.211C483.094 242.637 473.661 233.214 462.075 233.214Z" fill="#1D7460"/>
<path d="M462.075 239.531C453.97 239.531 447.385 246.117 447.385 254.222C447.385 262.328 453.981 268.923 462.086 268.923C470.192 268.923 476.787 262.328 476.787 254.222C476.777 246.117 470.181 239.531 462.075 239.531ZM462.075 266.14C455.501 266.14 450.158 260.797 450.158 254.222C450.169 247.658 455.512 242.315 462.075 242.315C468.65 242.315 473.993 247.658 473.993 254.233C473.993 260.797 468.65 266.14 462.075 266.14Z" fill="#F16520"/>
<path d="M457.845 280.52C458.614 280.52 459.237 279.897 459.237 279.128C459.237 278.359 458.614 277.736 457.845 277.736C457.076 277.736 456.453 278.359 456.453 279.128C456.453 279.897 457.076 280.52 457.845 280.52Z" fill="#1D7460"/>
<path d="M430.321 312V294.545H434.54V301.926H434.77L440.54 294.545H445.509L439.321 302.335L445.619 312H440.574L436.227 305.139L434.54 307.27V312H430.321ZM448.76 316.909C448.26 316.909 447.788 316.869 447.345 316.79C446.902 316.716 446.521 316.616 446.203 316.491L447.124 313.466C447.533 313.602 447.902 313.682 448.232 313.705C448.567 313.727 448.854 313.673 449.092 313.543C449.337 313.418 449.524 313.193 449.655 312.869L449.817 312.477L445.163 298.909H449.527L451.939 308.25H452.075L454.521 298.909H458.911L453.976 313.253C453.737 313.969 453.399 314.599 452.962 315.145C452.53 315.696 451.97 316.128 451.283 316.44C450.601 316.753 449.76 316.909 448.76 316.909ZM460.509 298.909H464.676V312.545C464.676 313.625 464.455 314.483 464.011 315.119C463.574 315.756 462.955 316.213 462.153 316.491C461.352 316.77 460.406 316.909 459.315 316.909C459.168 316.909 459.028 316.906 458.898 316.901C458.767 316.895 458.625 316.889 458.472 316.884V313.722C458.574 313.733 458.665 313.741 458.744 313.747C458.824 313.753 458.903 313.756 458.983 313.756C459.557 313.756 459.955 313.648 460.176 313.432C460.398 313.222 460.509 312.898 460.509 312.46V298.909ZM462.588 297.384C462.003 297.384 461.5 297.19 461.08 296.804C460.659 296.412 460.449 295.94 460.449 295.389C460.449 294.844 460.659 294.378 461.08 293.991C461.5 293.599 462.003 293.403 462.588 293.403C463.179 293.403 463.682 293.599 464.097 293.991C464.517 294.378 464.727 294.844 464.727 295.389C464.727 295.94 464.517 296.412 464.097 296.804C463.682 297.19 463.179 297.384 462.588 297.384ZM473.44 312.247C472.065 312.247 470.883 311.966 469.894 311.403C468.911 310.835 468.153 310.045 467.619 309.034C467.09 308.017 466.826 306.838 466.826 305.497C466.826 304.151 467.09 302.972 467.619 301.96C468.153 300.943 468.911 300.153 469.894 299.591C470.883 299.023 472.065 298.739 473.44 298.739C474.815 298.739 475.994 299.023 476.977 299.591C477.965 300.153 478.724 300.943 479.252 301.96C479.786 302.972 480.053 304.151 480.053 305.497C480.053 306.838 479.786 308.017 479.252 309.034C478.724 310.045 477.965 310.835 476.977 311.403C475.994 311.966 474.815 312.247 473.44 312.247ZM473.465 309.102C473.965 309.102 474.388 308.949 474.735 308.642C475.082 308.335 475.346 307.909 475.528 307.364C475.715 306.818 475.809 306.187 475.809 305.472C475.809 304.744 475.715 304.108 475.528 303.562C475.346 303.017 475.082 302.591 474.735 302.284C474.388 301.977 473.965 301.824 473.465 301.824C472.948 301.824 472.511 301.977 472.153 302.284C471.8 302.591 471.531 303.017 471.343 303.562C471.161 304.108 471.07 304.744 471.07 305.472C471.07 306.187 471.161 306.818 471.343 307.364C471.531 307.909 471.8 308.335 472.153 308.642C472.511 308.949 472.948 309.102 473.465 309.102ZM494.465 298.909L489.974 312H485.201L480.718 298.909H485.107L487.519 307.926H487.656L490.076 298.909H494.465Z" fill="#1D7460"/>
</g>
<defs>
<clipPath id="clip0_25_2782">
<rect width="654" height="365" fill="white"/>
</clipPath>
</defs>
</svg>
