<svg width="16" height="17" viewBox="0 0 16 17" fill="none" xmlns="http://www.w3.org/2000/svg">
<path d="M15.0188 11.8C14.9781 11.7688 12 9.62187 11.1844 9.775C10.7937 9.84375 10.5719 10.1094 10.125 10.6438C10.0531 10.7312 9.88125 10.9344 9.74687 11.0813C9.46562 10.9875 9.1875 10.8781 8.92188 10.7437C7.54375 10.0719 6.43125 8.95937 5.7625 7.58437C5.63125 7.31875 5.51875 7.04063 5.425 6.75938C5.57188 6.625 5.77812 6.45 5.86562 6.37813C6.39687 5.93438 6.6625 5.70937 6.73125 5.31875C6.87187 4.50937 4.72813 1.5125 4.70625 1.48438C4.50938 1.20312 4.19688 1.025 3.85313 1C2.98125 1 0.5 4.21875 0.5 4.75938C0.5 4.79063 0.546875 7.99375 4.49375 12.0094C8.50625 15.9531 11.7094 16 11.7406 16C12.2812 16 15.5 13.5187 15.5 12.65C15.475 12.3094 15.2969 11.9969 15.0188 11.8Z" fill="#1D7460"/>
</svg>
