<svg width="40" height="41" viewBox="0 0 40 41" fill="none" xmlns="http://www.w3.org/2000/svg">
<g clip-path="url(#clip0_50_819)">
<path d="M25.5168 40.1076C25.4172 40.1076 25.3235 40.1076 25.2239 40.1076C22.2064 40.0783 19.1128 39.1818 16.0134 37.43C13.5701 36.0472 11.1093 34.1255 8.70123 31.7174C3.2347 26.2508 0.439913 20.7199 0.387182 15.2768C0.357886 11.8316 0.744586 6.8221 4.45339 3.10744C5.87129 1.68954 7.62901 0.904418 9.41604 0.886841H9.46291C9.46877 0.886841 9.46877 0.886841 9.47463 0.886841C11.6132 0.886841 13.5994 2.05866 14.6599 3.94529L15.9372 6.20689L15.9548 6.24205C16.5817 7.54277 16.8864 8.53881 16.945 9.45869C17.027 10.736 16.6169 11.8433 15.7146 12.7456L12.0058 16.5892C12.4803 17.9602 13.8572 21.3644 16.611 24.124C19.3589 26.866 22.6693 28.1726 24.0286 28.6238L27.7433 24.7685C29.8584 22.6592 32.3544 23.5381 34.2879 24.54L34.323 24.5576L36.5495 25.8055C38.442 26.866 39.6138 28.864 39.6079 31.0084V31.0553C39.5962 32.8365 38.8052 34.6 37.3873 36.0179C35.7819 37.6233 33.7488 38.7717 31.3525 39.4221C29.6533 39.8791 27.7433 40.1076 25.5168 40.1076ZM9.48049 3.23634H9.47463H9.43947C8.27937 3.24219 7.09584 3.78709 6.11737 4.76556C3.02963 7.8533 2.70738 12.23 2.73668 15.2533C2.77769 20.0578 5.34397 25.0439 10.3594 30.0592C15.4275 35.1274 20.437 37.7171 25.2414 37.7639C28.2589 37.7932 32.6239 37.4651 35.7292 34.3598C36.7077 33.3813 37.2526 32.2037 37.2584 31.0377V31.0026C37.2584 29.7077 36.5436 28.5007 35.3952 27.8504L33.1864 26.6082C31.0009 25.4774 30.1396 25.6825 29.4014 26.4149L24.7434 31.2545L24.0872 31.0904C23.8763 31.0377 18.9429 29.7663 14.9529 25.7821C10.9804 21.7979 9.60353 16.8001 9.54494 16.5892L9.37502 15.9447L14.0506 11.0992C14.7302 10.4196 14.9353 9.54657 13.8572 7.29082L12.6268 5.09953C11.9765 3.94528 10.7753 3.23634 9.48049 3.23634Z" fill="#1D7460"/>
<path d="M39.6075 19.2497H37.2639C37.2639 10.42 30.0806 3.23676 21.251 3.23676V0.893127C26.155 0.893127 30.7661 2.80319 34.2347 6.27177C37.6974 9.73449 39.6075 14.3456 39.6075 19.2497Z" fill="#F16520"/>
<path d="M27.1101 19.2497H24.7664C24.7664 17.3103 23.1903 15.7342 21.251 15.7342V13.3906C24.4793 13.3906 27.1101 16.0154 27.1101 19.2497Z" fill="#F16520"/>
<path d="M33.3559 19.2497H31.0122C31.0122 13.8651 26.6296 9.48255 21.2451 9.48255V7.13892C27.9245 7.13892 33.3559 12.5703 33.3559 19.2497Z" fill="#F16520"/>
</g>
<defs>
<clipPath id="clip0_50_819">
<rect width="40" height="40" fill="white" transform="translate(0 0.5)"/>
</clipPath>
</defs>
</svg>
