<svg width="40" height="39" viewBox="0 0 40 39" fill="none" xmlns="http://www.w3.org/2000/svg">
<g clip-path="url(#clip0_50_841)">
<path d="M3.5 33.1111L4.53125 25.9326C4.75781 24.3633 5.5 22.8794 6.63281 21.7607L27.2578 1.25076C28.9297 -0.411792 31.6563 -0.411792 33.3359 1.25076L35.5469 3.44936C36.3516 4.25733 36.7969 5.32944 36.7969 6.47148C36.7969 7.61351 36.3516 8.68562 35.5391 9.49359L14.9141 30.0035C13.7891 31.1223 12.2969 31.8681 10.7188 32.0934L3.5 33.1111ZM30.2891 2.33064C29.7891 2.33064 29.2891 2.51709 28.9063 2.89777L8.28125 23.4077C7.50781 24.1769 7 25.1868 6.84375 26.2667L6.25781 30.3687L10.3828 29.786C11.4609 29.6306 12.4844 29.1257 13.2578 28.3565L33.8828 7.84657C34.25 7.48143 34.4531 6.99199 34.4531 6.47148C34.4531 5.95096 34.25 5.46151 33.8828 5.09637L31.6719 2.89777C31.2891 2.51709 30.7891 2.33064 30.2891 2.33064Z" fill="#1D7460"/>
<path d="M9.02152 21.0253L7.36426 22.6733L13.9436 29.2159L15.6009 27.5679L9.02152 21.0253Z" fill="#1D7460"/>
<path d="M24.4903 5.64257L22.833 7.29059L29.4124 13.8332L31.0696 12.1852L24.4903 5.64257Z" fill="#1D7460"/>
<path d="M40 36.6693H0V39H40V36.6693Z" fill="#F16520"/>
</g>
<defs>
<clipPath id="clip0_50_841">
<rect width="40" height="39" fill="white"/>
</clipPath>
</defs>
</svg>
